<svg width="207" height="188" viewBox="0 0 207 188" fill="none" xmlns="http://www.w3.org/2000/svg">
<g id="Beach (Solid)">
<path id="Vector" d="M47.5512 187.192H163.774C166.969 187.2 170.048 185.993 172.395 183.813C182.186 174.693 190.018 163.655 195.411 151.377C200.804 139.1 203.643 125.842 203.754 112.419C204.255 57.8405 160.154 12.9323 105.901 12.8035C51.6164 12.6746 7.57038 56.9067 7.57038 111.488C7.55488 125.073 10.3354 138.514 15.7367 150.965C21.1381 163.416 29.0434 174.607 38.9548 183.833C41.2969 186.003 44.3673 187.203 47.5512 187.192Z" fill="#475569"/>
<path id="Vector_2" d="M157.803 75.8934C172.409 75.8934 184.25 64.0525 184.25 49.446C184.25 34.8395 172.409 22.9985 157.803 22.9985C143.196 22.9985 131.355 34.8395 131.355 49.446C131.355 64.0525 143.196 75.8934 157.803 75.8934Z" fill="#94A3B8"/>
<path id="Vector_3" d="M161.872 3.83452C161.872 1.71677 160.155 0 158.038 0C155.92 0 154.203 1.71677 154.203 3.83452V11.0653C154.203 13.1831 155.92 14.8999 158.038 14.8999C160.155 14.8999 161.872 13.1831 161.872 11.0653V3.83452Z" fill="#94A3B8"/>
<path id="Vector_4" d="M161.872 84.9776C161.872 82.8598 160.155 81.1431 158.038 81.1431C155.92 81.1431 154.203 82.8598 154.203 84.9776V92.2084C154.203 94.3262 155.92 96.0429 158.038 96.0429C160.155 96.0429 161.872 94.3262 161.872 92.2084V84.9776Z" fill="#94A3B8"/>
<path id="Vector_5" d="M202.226 51.8561C204.344 51.8561 206.061 50.1393 206.061 48.0215C206.061 45.9038 204.344 44.187 202.226 44.187H194.995C192.877 44.187 191.161 45.9038 191.161 48.0215C191.161 50.1393 192.877 51.8561 194.995 51.8561H202.226Z" fill="#94A3B8"/>
<path id="Vector_6" d="M121.081 51.856C123.199 51.856 124.916 50.1393 124.916 48.0215C124.916 45.9038 123.199 44.187 121.081 44.187H113.851C111.733 44.187 110.016 45.9038 110.016 48.0215C110.016 50.1393 111.733 51.856 113.851 51.856H121.081Z" fill="#94A3B8"/>
<path id="Vector_7" d="M191.995 14.0654C192.351 14.4215 192.633 14.8442 192.826 15.3094C193.019 15.7747 193.118 16.2733 193.118 16.7768C193.118 17.2804 193.019 17.779 192.826 18.2442C192.633 18.7095 192.351 19.1322 191.995 19.4883L186.882 24.6012C186.163 25.3203 185.187 25.7243 184.17 25.7243C183.153 25.7243 182.178 25.3203 181.459 24.6012C181.103 24.2452 180.82 23.8224 180.628 23.3572C180.435 22.892 180.336 22.3934 180.336 21.8898C180.336 21.3862 180.435 20.8876 180.628 20.4224C180.82 19.9572 181.103 19.5345 181.459 19.1784L186.572 14.0654C186.928 13.7094 187.351 13.4269 187.816 13.2342C188.281 13.0415 188.78 12.9423 189.283 12.9423C189.787 12.9423 190.285 13.0415 190.751 13.2342C191.216 13.4269 191.639 13.7093 191.995 14.0654Z" fill="#94A3B8"/>
<path id="Vector_8" d="M134.618 71.4424C135.337 72.1615 135.741 73.1368 135.741 74.1538C135.741 75.1708 135.337 76.1461 134.618 76.8652L129.505 81.9782C128.786 82.6973 127.81 83.1013 126.793 83.1013C125.776 83.1013 124.801 82.6973 124.082 81.9782C123.363 81.259 122.959 80.2837 122.959 79.2668C122.959 78.2498 123.363 77.2744 124.082 76.5553L129.195 71.4424C129.914 70.7233 130.889 70.3193 131.906 70.3193C132.923 70.3193 133.899 70.7233 134.618 71.4424L134.618 71.4424Z" fill="#94A3B8"/>
<path id="Vector_9" d="M191.994 81.978C191.275 82.6971 190.299 83.1011 189.282 83.1011C188.265 83.1011 187.29 82.6971 186.571 81.978L181.458 76.865C180.739 76.1459 180.335 75.1706 180.335 74.1536C180.335 73.1367 180.739 72.1613 181.458 71.4422C181.814 71.0861 182.237 70.8037 182.702 70.611C183.167 70.4183 183.666 70.3191 184.169 70.3191C184.673 70.3191 185.171 70.4183 185.637 70.611C186.102 70.8037 186.525 71.0861 186.881 71.4422L191.994 76.5552C192.35 76.9112 192.632 77.334 192.825 77.7992C193.018 78.2644 193.117 78.763 193.117 79.2666C193.117 79.7701 193.018 80.2688 192.825 80.734C192.632 81.1992 192.35 81.6219 191.994 81.978L191.994 81.978Z" fill="#94A3B8"/>
<path id="Vector_10" d="M134.617 24.6011C134.261 24.9571 133.838 25.2396 133.373 25.4323C132.907 25.625 132.409 25.7242 131.905 25.7242C131.402 25.7242 130.903 25.625 130.438 25.4323C129.973 25.2396 129.55 24.9571 129.194 24.6011L124.081 19.4881C123.362 18.769 122.958 17.7937 122.958 16.7767C122.958 15.7597 123.362 14.7844 124.081 14.0653C124.437 13.7092 124.86 13.4267 125.325 13.234C125.79 13.0413 126.289 12.9422 126.792 12.9422C127.296 12.9422 127.795 13.0413 128.26 13.234C128.725 13.4268 129.148 13.7092 129.504 14.0653L134.617 19.1782C135.336 19.8973 135.74 20.8727 135.74 21.8896C135.74 22.9066 135.336 23.882 134.617 24.6011Z" fill="#94A3B8"/>
<path id="Vector_11" d="M201.083 187.767C201.802 187.767 202.504 187.544 203.09 187.127C203.676 186.711 204.119 186.122 204.355 185.443C204.592 184.764 204.611 184.028 204.411 183.337C204.21 182.646 203.799 182.035 203.236 181.589C181.464 164.42 145.877 153.232 105.665 153.232C65.4524 153.232 29.8653 164.42 8.09362 181.589C7.52996 182.035 7.11933 182.646 6.91872 183.337C6.71811 184.028 6.73747 184.764 6.97412 185.443C7.21076 186.122 7.65295 186.711 8.23932 187.127C8.82569 187.544 9.52716 187.767 10.2464 187.767L201.083 187.767Z" fill="#1E293B"/>
<path id="Vector_12" d="M67.3438 66.5529L62.1289 67.2295L76.0619 174.618L81.2768 173.942L67.3438 66.5529Z" fill="#77CDBE"/>
<path id="Vector_13" d="M3.63777 89.3959L129.556 73.0589C129.943 73.0087 130.312 72.8645 130.63 72.6388C130.949 72.4131 131.207 72.1129 131.383 71.7643C131.559 71.4157 131.647 71.0294 131.639 70.6391C131.631 70.2488 131.527 69.8665 131.337 69.5254C124.438 57.1788 113.997 47.1827 101.362 40.8266C88.7275 34.4704 74.478 32.0459 60.452 33.8656C46.426 35.6854 33.267 41.666 22.6725 51.036C12.0779 60.406 4.53397 72.7355 1.0137 86.4339C0.91717 86.8122 0.914728 87.2083 1.00659 87.5877C1.09845 87.9671 1.28182 88.3182 1.54068 88.6104C1.79954 88.9026 2.12601 89.127 2.49157 89.2639C2.85713 89.4008 3.25066 89.4461 3.63777 89.3959Z" fill="#1DAC92"/>
<path id="Vector_14" d="M39.8848 84.6933L93.3075 77.7621C85.9236 50.7 72.834 32.2593 60.4513 33.8659C48.0685 35.4725 40.1183 56.643 39.8848 84.6933Z" fill="#77CDBE"/>
</g>
</svg>
