<svg width="207" height="188" viewBox="0 0 207 188" fill="none" xmlns="http://www.w3.org/2000/svg">
<g id="Illustration">
<path id="Vector" d="M47.5517 187.192H163.775C166.969 187.2 170.049 185.993 172.396 183.813C182.186 174.693 190.019 163.655 195.412 151.377C200.805 139.099 203.644 125.842 203.754 112.419C204.255 57.8404 160.155 12.9322 105.901 12.8034C51.6169 12.6745 7.57087 56.9066 7.57087 111.488C7.55537 125.073 10.3358 138.514 15.7372 150.965C21.1386 163.416 29.0439 174.606 38.9553 183.833C41.2974 186.003 44.3678 187.203 47.5517 187.192Z" fill="#F1F5F9"/>
<path id="Vector_2" d="M157.803 75.8932C172.409 75.8932 184.25 64.0523 184.25 49.4457C184.25 34.8392 172.409 22.9983 157.803 22.9983C143.196 22.9983 131.355 34.8392 131.355 49.4457C131.355 64.0523 143.196 75.8932 157.803 75.8932Z" fill="#A5DED3"/>
<path id="Vector_3" d="M161.873 3.83452C161.873 1.71677 160.156 0 158.039 0C155.921 0 154.204 1.71677 154.204 3.83452V11.0653C154.204 13.1831 155.921 14.8999 158.039 14.8999C160.156 14.8999 161.873 13.1831 161.873 11.0653V3.83452Z" fill="#A5DED3"/>
<path id="Vector_4" d="M161.873 84.9778C161.873 82.8601 160.156 81.1433 158.039 81.1433C155.921 81.1433 154.204 82.8601 154.204 84.9778V92.2087C154.204 94.3264 155.921 96.0432 158.039 96.0432C160.156 96.0432 161.873 94.3264 161.873 92.2087V84.9778Z" fill="#A5DED3"/>
<path id="Vector_5" d="M202.226 51.8561C204.343 51.8561 206.06 50.1393 206.06 48.0215C206.06 45.9038 204.343 44.187 202.226 44.187H194.995C192.877 44.187 191.16 45.9038 191.16 48.0215C191.16 50.1393 192.877 51.8561 194.995 51.8561H202.226Z" fill="#A5DED3"/>
<path id="Vector_6" d="M121.082 51.856C123.2 51.856 124.917 50.1393 124.917 48.0215C124.917 45.9038 123.2 44.187 121.082 44.187H113.852C111.734 44.187 110.017 45.9038 110.017 48.0215C110.017 50.1393 111.734 51.856 113.852 51.856H121.082Z" fill="#A5DED3"/>
<path id="Vector_7" d="M191.995 14.0652C192.351 14.4212 192.634 14.844 192.826 15.3092C193.019 15.7744 193.118 16.273 193.118 16.7766C193.118 17.2802 193.019 17.7788 192.826 18.244C192.634 18.7092 192.351 19.1319 191.995 19.488L186.882 24.601C186.163 25.3201 185.188 25.7241 184.171 25.7241C183.154 25.7241 182.178 25.3201 181.459 24.601C181.103 24.2449 180.821 23.8222 180.628 23.357C180.435 22.8917 180.336 22.3931 180.336 21.8896C180.336 21.386 180.435 20.8874 180.628 20.4222C180.821 19.9569 181.103 19.5342 181.459 19.1781L186.572 14.0652C186.928 13.7091 187.351 13.4267 187.816 13.234C188.282 13.0413 188.78 12.9421 189.284 12.9421C189.787 12.9421 190.286 13.0413 190.751 13.234C191.216 13.4267 191.639 13.7091 191.995 14.0652Z" fill="#A5DED3"/>
<path id="Vector_8" d="M134.618 71.4421C135.337 72.1612 135.741 73.1366 135.741 74.1535C135.741 75.1705 135.337 76.1458 134.618 76.865L129.505 81.9779C128.786 82.697 127.811 83.101 126.794 83.101C125.777 83.101 124.801 82.697 124.082 81.9779C123.363 81.2588 122.959 80.2835 122.959 79.2665C122.959 78.2495 123.363 77.2742 124.082 76.5551L129.195 71.4421C129.914 70.723 130.89 70.319 131.907 70.319C132.924 70.319 133.899 70.723 134.618 71.4421L134.618 71.4421Z" fill="#A5DED3"/>
<path id="Vector_9" d="M191.995 81.9779C191.276 82.697 190.301 83.101 189.284 83.101C188.267 83.101 187.291 82.697 186.572 81.9779L181.459 76.8649C180.74 76.1458 180.336 75.1705 180.336 74.1535C180.336 73.1365 180.74 72.1612 181.459 71.4421C181.815 71.086 182.238 70.8036 182.703 70.6109C183.169 70.4182 183.667 70.319 184.171 70.319C184.674 70.319 185.173 70.4182 185.638 70.6109C186.103 70.8036 186.526 71.086 186.882 71.4421L191.995 76.5551C192.351 76.9111 192.634 77.3338 192.826 77.7991C193.019 78.2643 193.118 78.7629 193.118 79.2665C193.118 79.77 193.019 80.2687 192.826 80.7339C192.634 81.1991 192.351 81.6218 191.995 81.9779L191.995 81.9779Z" fill="#A5DED3"/>
<path id="Vector_10" d="M134.618 24.6011C134.262 24.9571 133.839 25.2396 133.374 25.4323C132.909 25.625 132.41 25.7242 131.907 25.7242C131.403 25.7242 130.904 25.625 130.439 25.4323C129.974 25.2396 129.551 24.9571 129.195 24.6011L124.082 19.4881C123.363 18.769 122.959 17.7937 122.959 16.7767C122.959 15.7597 123.363 14.7844 124.082 14.0653C124.438 13.7092 124.861 13.4267 125.326 13.234C125.791 13.0413 126.29 12.9422 126.794 12.9422C127.297 12.9422 127.796 13.0413 128.261 13.234C128.726 13.4268 129.149 13.7092 129.505 14.0653L134.618 19.1782C135.337 19.8973 135.741 20.8727 135.741 21.8896C135.741 22.9066 135.337 23.882 134.618 24.6011Z" fill="#A5DED3"/>
<path id="Vector_11" d="M201.083 186.767C201.802 186.767 202.504 186.544 203.09 186.127C203.676 185.711 204.119 185.122 204.355 184.443C204.592 183.764 204.611 183.028 204.411 182.337C204.21 181.646 203.799 181.035 203.236 180.589C181.464 163.42 145.877 152.232 105.665 152.232C65.4524 152.232 29.8653 163.42 8.09362 180.588C7.52996 181.035 7.11933 181.646 6.91872 182.337C6.71811 183.028 6.73747 183.764 6.97412 184.443C7.21076 185.122 7.65295 185.711 8.23932 186.127C8.82569 186.544 9.52716 186.767 10.2464 186.767L201.083 186.767Z" fill="#CBD5E1"/>
<path id="Vector_12" d="M67.3446 66.5528L62.1296 67.2294L76.0626 174.618L81.2775 173.942L67.3446 66.5528Z" fill="#1DAC92"/>
<path id="Vector_13" d="M3.63826 89.396L129.556 73.0591C129.943 73.0088 130.312 72.8646 130.631 72.6389C130.949 72.4132 131.208 72.113 131.384 71.7644C131.559 71.4158 131.647 71.0295 131.639 70.6393C131.631 70.249 131.528 69.8666 131.338 69.5255C124.438 57.1789 113.998 47.1828 101.363 40.8267C88.728 34.4705 74.4785 32.046 60.4525 33.8658C46.4265 35.6855 33.2674 41.6662 22.6729 51.0361C12.0784 60.4061 4.53445 72.7356 1.01419 86.4341C0.917659 86.8123 0.915217 87.2084 1.00708 87.5878C1.09894 87.9672 1.28231 88.3184 1.54117 88.6105C1.80002 88.9027 2.12649 89.1271 2.49205 89.264C2.85761 89.4009 3.25114 89.4463 3.63826 89.396Z" fill="#4ABDA8"/>
<path id="Vector_14" d="M39.886 84.693L93.3087 77.7618C85.9248 50.6998 72.8352 32.2591 60.4525 33.8656C48.0697 35.4722 40.1195 56.6427 39.886 84.693Z" fill="#1DAC92"/>
</g>
</svg>
