<svg width="41" height="40" viewBox="0 0 41 40" fill="none" xmlns="http://www.w3.org/2000/svg">
<g id="apple">
<path id="apple_2" d="M28.7026 15.5717C28.6071 15.6274 26.3338 16.8031 26.3338 19.4098C26.441 22.3826 29.2026 23.4252 29.25 23.4252C29.2026 23.4809 28.8331 24.8454 27.7383 26.2757C26.8696 27.5078 25.9053 28.75 24.441 28.75C23.0481 28.75 22.5481 27.9288 20.941 27.9288C19.215 27.9288 18.7267 28.75 17.4052 28.75C15.941 28.75 14.9052 27.4412 13.9891 26.2207C12.7989 24.6232 11.7872 22.1164 11.7515 19.7093C11.7274 18.4338 11.9899 17.18 12.656 16.1151C13.5962 14.6283 15.2748 13.619 17.1079 13.5858C18.5124 13.5416 19.7624 14.4843 20.6195 14.4843C21.441 14.4843 22.9767 13.5858 24.7143 13.5858C25.4643 13.5865 27.4643 13.797 28.7026 15.5717ZM20.5008 13.3311C20.2508 12.1663 20.941 11.0015 21.5838 10.2585C22.4053 9.3599 23.7026 8.75 24.8214 8.75C24.8928 9.91481 24.4402 11.0572 23.6312 11.8892C22.9053 12.7878 21.6553 13.4642 20.5008 13.3311Z" fill="#121826"/>
</g>
</svg>
