<svg width="16" height="14" viewBox="0 0 16 14" fill="none" xmlns="http://www.w3.org/2000/svg">
<g id="Filter">
<path id="Stroke 1" d="M6.60851 10.8274H1.35791" stroke="#64748B" stroke-width="1.5" stroke-linecap="round" stroke-linejoin="round"/>
<path id="Stroke 3" d="M8.95044 2.75023H14.201" stroke="#64748B" stroke-width="1.5" stroke-linecap="round" stroke-linejoin="round"/>
<path id="Stroke 5" fill-rule="evenodd" clip-rule="evenodd" d="M5.27195 2.70521C5.27195 1.6255 4.39015 0.75 3.30266 0.75C2.21517 0.75 1.33337 1.6255 1.33337 2.70521C1.33337 3.78492 2.21517 4.66042 3.30266 4.66042C4.39015 4.66042 5.27195 3.78492 5.27195 2.70521Z" stroke="#64748B" stroke-width="1.5" stroke-linecap="round" stroke-linejoin="round"/>
<path id="Stroke 7" fill-rule="evenodd" clip-rule="evenodd" d="M14.6667 10.7948C14.6667 9.7151 13.7856 8.8396 12.6981 8.8396C11.6099 8.8396 10.7281 9.7151 10.7281 10.7948C10.7281 11.8745 11.6099 12.75 12.6981 12.75C13.7856 12.75 14.6667 11.8745 14.6667 10.7948Z" stroke="#64748B" stroke-width="1.5" stroke-linecap="round" stroke-linejoin="round"/>
</g>
</svg>
