<svg width="187" height="168" viewBox="0 0 187 168" fill="none" xmlns="http://www.w3.org/2000/svg">
<g id="Nothing here (Solid)">
<path id="Vector" d="M41.1634 167H149.554C152.533 167.007 155.405 165.882 157.594 163.848C166.725 155.344 174.029 145.049 179.059 133.599C184.088 122.149 186.736 109.784 186.839 97.2662C187.307 46.3659 146.178 4.48416 95.5807 4.36403C44.9546 4.24384 3.87701 45.495 3.87701 96.3982C3.86256 109.068 6.45565 121.603 11.493 133.214C16.5304 144.826 23.9029 155.263 33.1464 163.867C35.3306 165.891 38.1941 167.01 41.1634 167Z" fill="#475569"/>
<path id="Vector_2" d="M79.6488 144.687C79.9944 140.648 77.8876 137.169 74.9432 136.917C71.9988 136.665 69.3317 139.735 68.9861 143.775C68.6405 147.814 70.7473 151.292 73.6917 151.544C76.6361 151.796 79.3032 148.726 79.6488 144.687Z" fill="#6378AE"/>
<path id="Vector_3" d="M76.3136 149.69C77.0575 146.83 74.48 143.684 70.5566 142.664C66.6333 141.643 62.8497 143.135 62.1058 145.995C61.3619 148.855 63.9393 152 67.8627 153.021C71.7861 154.041 75.5696 152.55 76.3136 149.69Z" fill="#6378AE"/>
<path id="Vector_4" d="M75.5669 151.415C78.2374 149.527 78.3023 145.026 75.7118 141.363C73.1213 137.699 68.8565 136.26 66.186 138.149C63.5155 140.037 63.4506 144.538 66.041 148.201C68.6315 151.864 72.8963 153.303 75.5669 151.415Z" fill="#6378AE"/>
<path id="Vector_5" d="M124.137 14.9004C125.576 14.9004 127 15.1837 128.329 15.7342C129.658 16.2847 130.866 17.0915 131.883 18.1086C132.9 19.1258 133.707 20.3333 134.257 21.6623C134.808 22.9912 135.091 24.4156 135.091 25.8541C135.091 25.8614 135.09 25.8685 135.09 25.8758L143.297 24.2434V36.8077H124.137C121.233 36.8059 118.449 35.6511 116.396 33.5971C114.344 31.543 113.19 28.758 113.19 25.8541C113.19 22.9501 114.344 20.1651 116.396 18.1111C118.449 16.057 121.233 14.9022 124.137 14.9004Z" fill="#334155"/>
<path id="Vector_6" d="M143.297 0C147.466 0.000401318 151.511 1.41559 154.771 4.01402C158.031 6.61245 160.312 10.2403 161.242 14.304C162.796 14.0019 164.396 14.028 165.94 14.3807C167.483 14.7334 168.936 15.4049 170.204 16.352C171.473 17.2992 172.529 18.5012 173.306 19.8807C174.082 21.2603 174.562 22.787 174.714 24.3628C174.865 25.9387 174.686 27.5288 174.187 29.0313C173.688 30.5337 172.88 31.9151 171.816 33.087C170.751 34.2589 169.454 35.1952 168.006 35.836C166.558 36.4767 164.993 36.8077 163.41 36.8077H143.297C138.416 36.8077 133.735 34.8687 130.284 31.4174C126.833 27.966 124.894 23.2849 124.894 18.4039C124.894 13.5228 126.833 8.84176 130.284 5.39036C133.735 1.93897 138.416 0 143.297 0Z" fill="#334155"/>
<path id="Vector_7" d="M127.85 114.628H108.989C106.574 114.628 104.258 113.668 102.55 111.961C100.842 110.253 99.8828 107.937 99.8828 105.522C99.8828 103.107 100.842 100.791 102.55 99.0828C104.258 97.3751 106.574 96.4158 108.989 96.4158H127.85C130.779 96.4124 133.587 95.2474 135.658 93.1763C137.729 91.1052 138.894 88.2972 138.898 85.3682V70.8291C138.898 68.414 139.857 66.0979 141.565 64.3902C143.273 62.6825 145.589 61.7231 148.004 61.7231C150.419 61.7231 152.735 62.6825 154.443 64.3902C156.15 66.0979 157.11 68.414 157.11 70.8291V85.3682C157.101 93.1256 154.015 100.563 148.53 106.048C143.045 111.533 135.607 114.619 127.85 114.628Z" fill="#1DAC92"/>
<path id="Vector_8" d="M97.4582 5.49487H97.4583C103.207 5.49487 108.72 7.77848 112.785 11.8433C116.85 15.9082 119.133 21.4213 119.133 27.1699V160.688H75.7832V27.1699C75.7832 21.4213 78.0668 15.9082 82.1317 11.8433C86.1965 7.77848 91.7096 5.49487 97.4582 5.49487Z" fill="#4ABDA8"/>
<path id="Vector_9" d="M50.6288 79.2539C49.1904 79.2539 47.766 79.5372 46.437 80.0877C45.1081 80.6382 43.9005 81.445 42.8834 82.4622C41.8663 83.4793 41.0594 84.6868 40.5089 86.0158C39.9585 87.3448 39.6751 88.7691 39.6751 90.2076C39.6751 90.2149 39.6757 90.222 39.6757 90.2293L31.4688 88.5969V101.161H50.6288C53.5339 101.161 56.32 100.007 58.3742 97.953C60.4284 95.8988 61.5825 93.1127 61.5825 90.2076C61.5825 87.3025 60.4284 84.5164 58.3742 82.4622C56.32 80.408 53.5339 79.2539 50.6288 79.2539Z" fill="#334155"/>
<path id="Vector_10" d="M31.4685 64.3535C27.2997 64.3539 23.2546 65.7691 19.9947 68.3675C16.7349 70.966 14.4535 74.5938 13.5236 78.6575C11.9696 78.3554 10.3696 78.3815 8.82622 78.7342C7.28288 79.0869 5.83033 79.7584 4.56181 80.7056C3.29329 81.6527 2.23683 82.8547 1.46023 84.2343C0.683638 85.6138 0.204066 87.1405 0.0523022 88.7163C-0.099462 90.2922 0.0799344 91.8823 0.578976 93.3848C1.07802 94.8872 1.88568 96.2687 2.95012 97.4405C4.01455 98.6124 5.31225 99.5487 6.75992 100.189C8.20758 100.83 9.77322 101.161 11.3564 101.161H31.4685C36.348 101.159 41.0268 99.2189 44.4763 95.7677C47.9257 92.3166 49.8635 87.6368 49.8635 82.7574C49.8635 77.8779 47.9257 73.1981 44.4763 69.747C41.0268 66.2959 36.348 64.3559 31.4685 64.3535Z" fill="#334155"/>
<path id="Vector_11" d="M91.1117 89.126L75.7832 112.637V87.0808L91.1117 89.126Z" fill="#1DAC92"/>
<path id="Vector_12" d="M86.1473 90.6001H67.2861C59.5286 90.5913 52.0914 87.5058 46.606 82.0204C41.1206 76.5351 38.0351 69.0978 38.0264 61.3403V46.8015C38.0264 44.3865 38.9857 42.0703 40.6934 40.3626C42.4011 38.6549 44.7173 37.6956 47.1323 37.6956C49.5474 37.6956 51.8635 38.6549 53.5712 40.3626C55.2789 42.0703 56.2383 44.3865 56.2383 46.8015V61.3404C56.2416 64.2694 57.4066 67.0776 59.4777 69.1487C61.5489 71.2199 64.357 72.3849 67.2861 72.3882H86.1474C88.5624 72.3882 90.8785 73.3476 92.5862 75.0553C94.2939 76.763 95.2533 79.0791 95.2533 81.4942C95.2533 83.9092 94.2939 86.2253 92.5862 87.933C90.8785 89.6407 88.5624 90.6001 86.1474 90.6001L86.1473 90.6001Z" fill="#4ABDA8"/>
<path id="Vector_13" opacity="0.3" d="M80.7461 18.2133L80.7461 18.2133C79.9732 18.8654 79.8753 20.0206 80.5274 20.7935L83.0943 23.8358C83.7465 24.6087 84.9017 24.7067 85.6746 24.0545L85.6746 24.0545C86.4475 23.4024 86.5454 22.2472 85.8933 21.4743L83.3264 18.432C82.6743 17.6591 81.5191 17.5612 80.7461 18.2133Z" fill="#334155"/>
<path id="Vector_14" opacity="0.3" d="M147.198 73.1996C146.546 72.4267 145.391 72.3287 144.618 72.9809C143.845 73.633 143.747 74.7882 144.4 75.5611L146.966 78.6034C147.619 79.3763 148.774 79.4742 149.547 78.8221C150.32 78.17 150.417 77.0148 149.765 76.2419L147.198 73.1996Z" fill="#334155"/>
<path id="Vector_15" opacity="0.3" d="M109.81 105.636L109.81 105.636C109.037 106.288 108.939 107.443 109.591 108.216L112.158 111.258C112.81 112.031 113.965 112.129 114.738 111.477L114.738 111.477C115.511 110.825 115.609 109.67 114.957 108.897L112.39 105.855C111.738 105.082 110.583 104.984 109.81 105.636Z" fill="#334155"/>
<path id="Vector_16" opacity="0.3" d="M118.302 69.0257L118.302 69.0257C117.998 68.0613 116.969 67.5263 116.005 67.8307L112.209 69.0289C111.245 69.3333 110.71 70.3619 111.014 71.3262L111.014 71.3262C111.318 72.2906 112.347 72.8256 113.311 72.5212L117.107 71.323C118.072 71.0186 118.607 69.99 118.302 69.0257Z" fill="#334155"/>
<path id="Vector_17" opacity="0.3" d="M54.7524 62.9973L54.7523 62.9973C54.4479 62.033 53.4194 61.498 52.4551 61.8024L48.6591 63.0006C47.6948 63.305 47.1598 64.3336 47.4642 65.2979L47.4642 65.2979C47.7686 66.2623 48.7971 66.7973 49.7615 66.4929L53.5574 65.2946C54.5218 64.9902 55.0568 63.9617 54.7524 62.9973Z" fill="#334155"/>
<path id="Vector_18" opacity="0.3" d="M96.8913 130.614L96.8913 130.614C97.8429 130.272 98.3368 129.223 97.9945 128.271L96.6471 124.526C96.3048 123.574 95.256 123.08 94.3044 123.422L94.3044 123.422C93.3528 123.765 92.8589 124.814 93.2012 125.765L94.5486 129.511C94.8908 130.462 95.9397 130.956 96.8913 130.614Z" fill="#334155"/>
<path id="Vector_19" opacity="0.3" d="M89.6498 63.4091C90.6585 63.3378 91.4184 62.4622 91.347 61.4534C91.2756 60.4447 90.4 59.6848 89.3913 59.7562L85.4207 60.0371C84.4119 60.1085 83.6521 60.9841 83.7234 61.9928C83.7948 63.0016 84.6704 63.7614 85.6791 63.6901L89.6498 63.4091Z" fill="#334155"/>
<path id="Vector_20" opacity="0.3" d="M149.197 97.4565C150.205 97.3851 150.965 96.5095 150.894 95.5008C150.823 94.4921 149.947 93.7322 148.938 93.8035L144.968 94.0845C143.959 94.1559 143.199 95.0315 143.27 96.0402C143.342 97.0489 144.217 97.8088 145.226 97.7374L149.197 97.4565Z" fill="#334155"/>
<path id="Vector_21" opacity="0.3" d="M46.9277 53.483L46.9277 53.483C47.7006 52.8309 47.7985 51.6757 47.1464 50.9028L44.5795 47.8604C43.9274 47.0875 42.7722 46.9896 41.9993 47.6417L41.9993 47.6417C41.2263 48.2939 41.1284 49.4491 41.7805 50.222L44.3474 53.2643C44.9996 54.0372 46.1548 54.1351 46.9277 53.483Z" fill="#334155"/>
<path id="Vector_22" opacity="0.3" d="M107.411 92.4269L107.411 92.4268C107.649 91.444 107.045 90.4543 106.062 90.2164L102.193 89.2798C101.211 89.0418 100.221 89.6457 99.9829 90.6286L99.9829 90.6286C99.745 91.6114 100.349 92.6011 101.332 92.8391L105.2 93.7757C106.183 94.0136 107.173 93.4097 107.411 92.4269Z" fill="#334155"/>
<path id="Vector_23" opacity="0.3" d="M74.0814 87.8899C75.0901 87.8185 75.85 86.9429 75.7786 85.9341C75.7073 84.9254 74.8317 84.1655 73.8229 84.2369L69.8523 84.5178C68.8436 84.5892 68.0837 85.4648 68.1551 86.4735C68.2264 87.4823 69.102 88.2422 70.1108 88.1708L74.0814 87.8899Z" fill="#334155"/>
<path id="Vector_24" opacity="0.3" d="M99.2619 40.2295C98.6764 41.054 98.8701 42.197 99.6946 42.7826C100.519 43.3681 101.662 43.1744 102.248 42.3499L104.552 39.1045C105.138 38.28 104.944 37.1369 104.12 36.5514C103.295 35.9659 102.152 36.1596 101.567 36.9841L99.2619 40.2295Z" fill="#334155"/>
<path id="Vector_25" opacity="0.3" d="M52.552 82.3695L52.552 82.3695C53.3765 82.955 54.5196 82.7613 55.1051 81.9368L57.4099 78.6914C57.9954 77.8669 57.8017 76.7238 56.9772 76.1383L56.9772 76.1383C56.1527 75.5528 55.0096 75.7465 54.4241 76.571L52.1193 79.8164C51.5338 80.6409 51.7275 81.784 52.552 82.3695Z" fill="#334155"/>
<path id="Vector_26" opacity="0.3" d="M125.851 109.79C125.265 110.615 125.459 111.758 126.283 112.343C127.108 112.929 128.251 112.735 128.837 111.91L131.141 108.665C131.727 107.841 131.533 106.697 130.709 106.112C129.884 105.526 128.741 105.72 128.156 106.545L125.851 109.79Z" fill="#334155"/>
<path id="Vector_27" opacity="0.3" d="M80.9983 106.428L80.9983 106.428C81.8228 107.014 82.9659 106.82 83.5514 105.996L85.8562 102.75C86.4417 101.926 86.248 100.783 85.4235 100.197L85.4235 100.197C84.599 99.6116 83.4559 99.8053 82.8704 100.63L80.5656 103.875C79.9801 104.7 80.1738 105.843 80.9983 106.428Z" fill="#334155"/>
<path id="Vector_28" d="M128.898 136.708C131.26 134.755 132.021 131.776 130.597 130.054C129.173 128.332 126.104 128.519 123.742 130.472C121.38 132.425 120.619 135.404 122.043 137.126C123.466 138.848 126.535 138.661 128.898 136.708Z" fill="#6378AE"/>
<path id="Vector_29" d="M124.431 137.559C126.368 136.446 126.701 133.389 125.173 130.732C123.646 128.074 120.837 126.823 118.9 127.936C116.963 129.05 116.631 132.107 118.158 134.764C119.686 137.421 122.494 138.673 124.431 137.559Z" fill="#6378AE"/>
<path id="Vector_30" d="M128.605 132.824C129.21 129.486 127.727 126.422 125.294 125.982C122.861 125.541 120.398 127.89 119.794 131.228C119.189 134.566 120.672 137.629 123.105 138.07C125.538 138.51 128.001 136.162 128.605 132.824Z" fill="#6378AE"/>
<path id="Vector_31" d="M178.449 167.604C178.988 167.605 179.517 167.457 179.977 167.175C180.437 166.894 180.811 166.49 181.055 166.01C181.3 165.529 181.406 164.99 181.363 164.452C181.319 163.915 181.128 163.4 180.809 162.964C168.416 146.319 147.602 135.396 124.011 135.396C100.421 135.396 79.6068 146.319 67.2134 162.964C66.8948 163.4 66.7032 163.915 66.6598 164.452C66.6165 164.99 66.723 165.529 66.9676 166.01C67.2121 166.49 67.5852 166.894 68.0453 167.175C68.5054 167.457 69.0346 167.605 69.5739 167.604H178.449Z" fill="#121826"/>
<path id="Vector_32" d="M100.342 162.285C102.206 160.744 102.806 158.393 101.683 157.034C100.56 155.676 98.1381 155.823 96.2742 157.364C94.4104 158.905 93.81 161.256 94.9333 162.614C96.0565 163.973 98.4781 163.825 100.342 162.285Z" fill="#6378AE"/>
<path id="Vector_33" d="M96.8183 162.956C98.3466 162.077 98.6086 159.665 97.4034 157.569C96.1982 155.472 93.9822 154.485 92.4539 155.363C90.9255 156.242 90.6635 158.654 91.8687 160.75C93.0739 162.847 95.2899 163.834 96.8183 162.956Z" fill="#6378AE"/>
<path id="Vector_34" d="M100.112 159.219C100.589 156.585 99.419 154.169 97.4991 153.821C95.5792 153.473 93.6363 155.327 93.1594 157.96C92.6825 160.594 93.8523 163.011 95.7722 163.358C97.692 163.706 99.635 161.853 100.112 159.219Z" fill="#6378AE"/>
<path id="Vector_35" d="M100.193 167.604C90.9468 155.946 73.3879 148.074 53.2447 148.074C35.5801 148.074 19.9029 154.128 10.0764 163.48C9.73251 163.812 9.49583 164.24 9.39676 164.708C9.29769 165.176 9.34074 165.662 9.52039 166.106C9.70004 166.549 10.0081 166.928 10.405 167.195C10.8018 167.462 11.2695 167.604 11.7477 167.604L100.193 167.604Z" fill="#1E293B"/>
</g>
</svg>
